# xmcd
#
# Track frame offsets:
#	150
#	19165
#	42472
#	61735
#	92490
#	106447
#	123305
#	141440
#	158807
#	175160
#	195787
#	215547
#
# Disc length: 3168 seconds
#
# Revision: 3
# Processed by: cddbd v1.5.2PL0 Copyright (c) Steve Scherf et al.
# Submitted via: audiograbber 1.83.01
#
DISCID=9e0c5e0c
DTITLE=Hugo Race and the True Spirit - Valley of Light
DYEAR=1996
DGENRE=Alt. Rock
TTITLE0=Deepfried
TTITLE1=Valley of Light
TTITLE2=Benzocaine
TTITLE3=Grooves in My Hide
TTITLE4=Golden Fly
TTITLE5=Dirt Road
TTITLE6=Anaestheria
TTITLE7=Cease to Resist
TTITLE8=Salvation Jane
TTITLE9=Clear Spot
TTITLE10=What Happened Last Night
TTITLE11=Yeah, You Know
EXTD=GRCD 390 - www.helixed.net
EXTT0=
EXTT1=
EXTT2=
EXTT3=
EXTT4=
EXTT5=
EXTT6=
EXTT7=
EXTT8=
EXTT9=
EXTT10=
EXTT11=
PLAYORDER=
